<?xml version="1.0" encoding="UTF-8" standalone="no"?>
<!-- Created with Inkscape (http://www.inkscape.org/) -->

<svg
   width="172mm"
   height="40mm"
   viewBox="0 0 172 40"
   version="1.1"
   id="svg1"
   sodipodi:docname="acute-logo-horizontal-path.svg"
   inkscape:version="1.4.3 (0d15f75, 2025-12-25)"
   xmlns:inkscape="http://www.inkscape.org/namespaces/inkscape"
   xmlns:sodipodi="http://sodipodi.sourceforge.net/DTD/sodipodi-0.dtd"
   xmlns="http://www.w3.org/2000/svg"
   xmlns:svg="http://www.w3.org/2000/svg">
  <sodipodi:namedview
     id="namedview1"
     pagecolor="#ffffff"
     bordercolor="#000000"
     borderopacity="0.25"
     inkscape:showpageshadow="2"
     inkscape:pageopacity="0.0"
     inkscape:pagecheckerboard="true"
     inkscape:deskcolor="#d1d1d1"
     inkscape:document-units="mm"
     inkscape:zoom="1.4702524"
     inkscape:cx="187.04271"
     inkscape:cy="239.0746"
     inkscape:window-width="2560"
     inkscape:window-height="1369"
     inkscape:window-x="-8"
     inkscape:window-y="-8"
     inkscape:window-maximized="1"
     inkscape:current-layer="g9"
     showgrid="false" />
  <defs
     id="defs1">
    <rect
       x="112.54053"
       y="527.11292"
       width="566.16083"
       height="159.1993"
       id="rect1" />
    <rect
       x="112.54053"
       y="527.11292"
       width="555.64569"
       height="58.105354"
       id="rect1-1" />
    <rect
       x="112.54053"
       y="527.11292"
       width="903.2099"
       height="163.52043"
       id="rect2" />
    <rect
       x="112.54053"
       y="527.11292"
       width="903.2099"
       height="163.52043"
       id="rect4" />
    <rect
       x="112.54053"
       y="527.11292"
       width="571.56226"
       height="170.00214"
       id="rect5" />
  </defs>
  <g
     inkscape:label="Layer 1"
     inkscape:groupmode="layer"
     id="layer1">
    <g
       id="g9"
       transform="translate(-43.51928,-12.979434)">
      <path
         id="path90"
         d="m 59.569538,34.370967 c 1.40362,-1.48276 3.46947,-6.94379 4.45313,-9.08879 0.23582,-0.51203 0.72523,-0.81892 1.28894,-0.80761 0.56371,0.0113 1.0402,0.33596 1.25502,0.85768 l 4.67281,11.32263 c 1.38747,3.36287 2.62148,4.34492 4.20763,-0.10176 1.70566,-4.77779 2.29198,-6.64498 3.333792,-9.56851 3.57285,-10.02562 5.55794,-9.67835 9.1954,-1.08542 2.25807,5.33504 4.69058,10.65393 8.68823,4.08164 l 1.58936,-2.6118 c 1.150036,-1.89141 2.03839,-1.41816 2.53265,-0.0258 4.6292,13.02022 28.10213,9.89752 26.36349,11.73451 l -9.64282,0.0355 c -7.35244,0.0275 -13.70669,1.70081 -16.32818,-5.24944 -1.792874,-4.75195 -1.888174,-2.32267 -5.79213,6.6902 -2.83147,6.53515 -4.41115,4.74873 -8.09222,-6.64013 -4.17694,-9.4086 -3.19004,-10.92206 -8.55254,2.58757 -2.040012,5.13476 -3.587392,9.01772 -4.613052,9.33754 -1.22917,0.3828 -2.99622,-0.9659 -5.36089,-6.68374 -4.41276,-10.67494 -3.45817,-10.59256 -7.10692,-3.62777 -1.38263,2.63926 -2.85247,3.32734 -5.78246,3.52116 -1.21625,0.0808 -9.35692,0.0759 -11.17404,0.0905 -1.03771,-1.27453 11.12881,-0.82375 14.8648,-4.7681"
         style="fill:#140642;fill-opacity:1;fill-rule:nonzero;stroke:none;stroke-width:0.0161521"
         sodipodi:nodetypes="ccscccccccccccccccccccc" />
      <g
         id="text1"
         style="font-size:105.272px;text-align:center;letter-spacing:20px;white-space:pre;fill:#140642"
         transform="matrix(0.18526308,0,0,0.18312025,94.941961,-76.112623)"
         aria-label="ACUTE">
        <path
           style="font-family:'Arial Rounded MT Bold';-inkscape-font-specification:'Arial Rounded MT Bold, '"
           d="m 227.24374,614.62333 -3.59817,-9.45803 h -30.6358 l -3.59816,9.66364 q -2.1075,5.65426 -3.59816,7.65895 -1.49067,1.95329 -4.88323,1.95329 -2.87853,0 -5.08883,-2.1075 -2.2103,-2.10749 -2.2103,-4.78041 0,-1.54207 0.51402,-3.18695 0.51403,-1.64487 1.69628,-4.57481 l 19.27588,-48.93503 q 0.82244,-2.1075 1.95329,-5.03743 1.18225,-2.98134 2.46731,-4.93463 1.33646,-1.95329 3.44396,-3.13554 2.1589,-1.23366 5.29444,-1.23366 3.18695,0 5.29444,1.23366 2.1589,1.18225 3.44396,3.08414 1.33646,1.90189 2.2103,4.11219 0.92524,2.1589 2.31311,5.80846 l 19.68709,48.62662 q 2.31311,5.55146 2.31311,8.07017 0,2.62152 -2.2103,4.83182 -2.1589,2.1589 -5.24304,2.1589 -1.79908,0 -3.08414,-0.66823 -1.28506,-0.61683 -2.1589,-1.69628 -0.87384,-1.13085 -1.90189,-3.39255 -0.97664,-2.31311 -1.69627,-4.06079 z m -30.22458,-20.92075 h 22.51422 l -11.35991,-31.09842 z"
           id="path1" />
        <path
           style="font-family:'Arial Rounded MT Bold';-inkscape-font-specification:'Arial Rounded MT Bold, ';fill:#ff8000"
           d="m 338.94552,599.35684 q 0,3.59816 -1.79908,7.81315 -1.74768,4.16359 -5.55146,8.22438 -3.80377,4.00938 -9.71504,6.52809 -5.91127,2.51872 -13.77583,2.51872 -5.96267,0 -10.84589,-1.13085 -4.88323,-1.13085 -8.89261,-3.49536 -3.95798,-2.41591 -7.29913,-6.32249 -2.98134,-3.54676 -5.08883,-7.91596 -2.1075,-4.4206 -3.18695,-9.40663 -1.02805,-4.98603 -1.02805,-10.58888 0,-9.09822 2.62152,-16.29455 2.67292,-7.19632 7.60755,-12.28516 4.93462,-5.14023 11.56553,-7.81315 6.6309,-2.67293 14.13564,-2.67293 9.14962,0 16.29455,3.64957 7.14492,3.64957 10.9487,9.04681 3.80377,5.34585 3.80377,10.12627 0,2.62152 -1.85049,4.62621 -1.85048,2.00469 -4.472,2.00469 -2.92993,0 -4.4206,-1.38787 -1.43927,-1.38786 -3.23835,-4.78041 -2.98134,-5.60286 -7.04212,-8.37859 -4.00938,-2.77572 -9.92065,-2.77572 -9.40663,0 -15.00949,7.14492 -5.55145,7.14493 -5.55145,20.30393 0,8.7898 2.46731,14.64967 2.46731,5.80846 6.99072,8.687 4.52341,2.87853 10.58888,2.87853 6.5795,0 11.10291,-3.23835 4.57481,-3.28975 6.88791,-9.61224 0.97665,-2.98134 2.41591,-4.83182 1.43927,-1.90189 4.62622,-1.90189 2.72432,0 4.67761,1.90189 1.95329,1.90189 1.95329,4.72902 z"
           id="path2" />
        <path
           style="font-family:'Arial Rounded MT Bold';-inkscape-font-specification:'Arial Rounded MT Bold, '"
           d="m 372.77274,592.0063 v -36.23865 q 0,-4.62621 2.0561,-6.93932 2.10749,-2.31311 5.50005,-2.31311 3.54676,0 5.60285,2.31311 2.1075,2.31311 2.1075,6.93932 v 37.06109 q 0,6.32249 1.38786,10.58888 1.43927,4.21499 5.03743,6.5795 3.59817,2.31311 10.07486,2.31311 8.94401,0 12.64498,-4.72902 3.70097,-4.78042 3.70097,-14.44406 v -37.3695 q 0,-4.67762 2.05609,-6.93932 2.0561,-2.31311 5.50005,-2.31311 3.44396,0 5.55146,2.31311 2.15889,2.2617 2.15889,6.93932 v 36.23865 q 0,8.8412 -1.74768,14.75247 -1.69627,5.91127 -6.47669,10.38328 -4.11219,3.80377 -9.56084,5.55145 -5.44865,1.74768 -12.74778,1.74768 -8.68699,0 -14.95808,-1.85048 -6.27109,-1.90189 -10.22907,-5.80847 -3.95798,-3.95798 -5.80846,-10.07486 -1.85049,-6.16828 -1.85049,-14.70107 z m 148.81429,-31.61244 h -16.65436 v 54.7435 q 0,4.72901 -2.1075,7.04212 -2.1075,2.2617 -5.44865,2.2617 -3.39255,0 -5.55145,-2.31311 -2.1075,-2.3131 -2.1075,-6.99071 v -54.7435 h -16.65436 q -3.90658,0 -5.80846,-1.69628 -1.90189,-1.74768 -1.90189,-4.57481 0,-2.92993 1.95329,-4.62621 2.00469,-1.69628 5.75706,-1.69628 h 48.52382 q 3.95798,0 5.85986,1.74768 1.95329,1.74768 1.95329,4.57481 0,2.82713 -1.95329,4.57481 -1.95329,1.69628 -5.85986,1.69628 z m 86.51461,-0.82244 h -34.38817 v 18.50484 h 31.66385 q 3.49536,0 5.19163,1.59348 1.74768,1.54207 1.74768,4.11218 0,2.57012 -1.69627,4.215 -1.69628,1.59347 -5.24304,1.59347 h -31.66385 v 21.43478 h 35.57043 q 3.59816,0 5.39724,1.69628 1.85049,1.64487 1.85049,4.4206 0,2.67292 -1.85049,4.3692 -1.79908,1.64487 -5.39724,1.64487 h -41.4817 q -4.98602,0 -7.19632,-2.2103 -2.1589,-2.2103 -2.1589,-7.14493 v -56.64538 q 0,-3.28975 0.97664,-5.34584 0.97665,-2.1075 3.03274,-3.03274 2.1075,-0.97665 5.34584,-0.97665 h 40.29944 q 3.64957,0 5.39725,1.64488 1.79908,1.59347 1.79908,4.21499 0,2.67292 -1.79908,4.3178 -1.74768,1.59347 -5.39725,1.59347 z"
           id="path3" />
      </g>
      <path
         style="font-size:38.0081px;font-family:'Arial Rounded MT Bold';-inkscape-font-specification:'Arial Rounded MT Bold, ';text-align:center;letter-spacing:0.794146px;white-space:pre;fill:#140642"
         d="m 129.82943,550.15295 h -1.9301 v 8.74112 q 0,1.72596 -0.76091,2.54254 -0.7609,0.81658 -1.98577,0.81658 -1.31767,0 -2.04145,-0.8537 -0.72379,-0.8537 -0.72379,-2.50542 v -20.93414 q 0,-1.78163 0.79802,-2.57966 0.79802,-0.79802 2.57965,-0.79802 h 8.96383 q 1.85586,0 3.17352,0.16703 1.31767,0.14847 2.37551,0.63099 1.28055,0.53821 2.26416,1.54037 0.9836,1.00217 1.48469,2.33839 0.51964,1.31766 0.51964,2.80236 0,3.04361 -1.72595,4.86236 -1.7074,1.81875 -5.19642,2.57965 1.46613,0.77946 2.80235,2.30127 1.33622,1.52181 2.37551,3.24776 1.05784,1.7074 1.63316,3.0993 0.59387,1.37334 0.59387,1.89298 0,0.5382 -0.35261,1.0764 -0.33406,0.51964 -0.92793,0.81658 -0.59388,0.3155 -1.37334,0.3155 -0.92793,0 -1.55893,-0.44541 -0.63099,-0.42685 -1.09496,-1.09496 -0.44541,-0.66811 -1.22487,-1.96722 l -2.20848,-3.67461 q -1.18775,-2.02289 -2.13424,-3.08073 -0.92793,-1.05784 -1.89298,-1.44758 -0.96505,-0.38973 -2.43118,-0.38973 z m 3.15496,-11.43212 h -5.08506 v 7.47913 h 4.9366 q 1.98577,0 3.34055,-0.33405 1.35478,-0.35262 2.06001,-1.1692 0.72379,-0.83514 0.72379,-2.28271 0,-1.13208 -0.57532,-1.98577 -0.57532,-0.87226 -1.59604,-1.29911 -0.96505,-0.40829 -3.80453,-0.40829 z m 35.49881,0.11135 h -12.41573 v 6.68111 h 11.43212 q 1.26199,0 1.87443,0.57532 0.63099,0.55676 0.63099,1.48469 0,0.92793 -0.61244,1.52181 -0.61243,0.57532 -1.89298,0.57532 h -11.43212 v 7.73895 h 12.84258 q 1.2991,0 1.94866,0.61244 0.66811,0.59387 0.66811,1.59604 0,0.96505 -0.66811,1.57749 -0.64956,0.59387 -1.94866,0.59387 h -14.97682 q -1.80019,0 -2.59821,-0.79802 -0.77947,-0.79802 -0.77947,-2.57965 v -20.45162 q 0,-1.18776 0.35262,-1.9301 0.35261,-0.76091 1.09496,-1.09496 0.7609,-0.35262 1.9301,-0.35262 h 14.54997 q 1.31766,0 1.94866,0.59388 0.64955,0.57532 0.64955,1.52181 0,0.96505 -0.64955,1.55892 -0.631,0.57532 -1.94866,0.57532 z m 28.89193,14.79124 q 0,2.4683 -1.28055,4.43551 -1.26198,1.96722 -3.71172,3.08074 -2.44975,1.11352 -5.80886,1.11352 -4.02722,0 -6.64399,-1.52181 -1.85587,-1.09496 -3.02506,-2.91371 -1.15064,-1.8373 -1.15064,-3.56326 0,-1.00216 0.68667,-1.70739 0.70523,-0.72379 1.78163,-0.72379 0.87226,0 1.46613,0.55676 0.61244,0.55676 1.03929,1.65172 0.51964,1.2991 1.11352,2.17136 0.61243,0.87226 1.70739,1.44757 1.09496,0.55676 2.87659,0.55676 2.44974,0 3.97155,-1.13207 1.54037,-1.15064 1.54037,-2.85803 0,-1.35478 -0.83514,-2.18992 -0.81658,-0.8537 -2.13424,-1.29911 -1.29911,-0.44541 -3.48903,-0.94649 -2.93226,-0.68667 -4.91804,-1.59604 -1.96722,-0.92793 -3.13641,-2.50542 -1.15064,-1.59604 -1.15064,-3.95299 0,-2.2456 1.22487,-3.99011 1.22488,-1.74451 3.54471,-2.67244 2.31983,-0.94649 5.45624,-0.94649 2.50541,0 4.32416,0.63099 1.83731,0.61244 3.04362,1.65172 1.20631,1.02073 1.76307,2.1528 0.55676,1.13208 0.55676,2.20848 0,0.98361 -0.70523,1.78163 -0.68667,0.77946 -1.72595,0.77946 -0.9465,0 -1.44758,-0.46396 -0.48252,-0.48253 -1.05784,-1.55893 -0.74235,-1.54037 -1.78163,-2.39406 -1.03929,-0.87226 -3.34056,-0.87226 -2.13424,0 -3.4519,0.94649 -1.29911,0.92793 -1.29911,2.2456 0,0.81658 0.44541,1.41045 0.44541,0.59388 1.22487,1.02073 0.77946,0.42685 1.57748,0.66811 0.79802,0.24126 2.63533,0.70523 2.30127,0.5382 4.15714,1.18775 1.87442,0.64955 3.17352,1.57749 1.31767,0.92793 2.04145,2.35694 0.74235,1.41046 0.74235,3.47047 z m 23.39857,-14.79124 h -12.41573 v 6.68111 h 11.43212 q 1.26199,0 1.87442,0.57532 0.631,0.55676 0.631,1.48469 0,0.92793 -0.61244,1.52181 -0.61243,0.57532 -1.89298,0.57532 h -11.43212 v 7.73895 h 12.84258 q 1.2991,0 1.94866,0.61244 0.66811,0.59387 0.66811,1.59604 0,0.96505 -0.66811,1.57749 -0.64956,0.59387 -1.94866,0.59387 h -14.97683 q -1.80018,0 -2.59821,-0.79802 -0.77946,-0.79802 -0.77946,-2.57965 v -20.45162 q 0,-1.18776 0.35262,-1.9301 0.35261,-0.76091 1.09496,-1.09496 0.7609,-0.35262 1.93009,-0.35262 h 14.54998 q 1.31766,0 1.94866,0.59388 0.64955,0.57532 0.64955,1.52181 0,0.96505 -0.64955,1.55892 -0.631,0.57532 -1.94866,0.57532 z m 25.62561,19.87631 -1.2991,-3.41479 h -11.06095 l -1.29911,3.48902 q -0.7609,2.04145 -1.2991,2.76524 -0.5382,0.70523 -1.76307,0.70523 -1.03929,0 -1.83731,-0.76091 -0.79802,-0.7609 -0.79802,-1.72595 0,-0.55676 0.18559,-1.15064 0.18558,-0.59387 0.61243,-1.65172 l 6.95949,-17.66782 q 0.29694,-0.76091 0.70523,-1.81875 0.42685,-1.0764 0.89082,-1.78163 0.48252,-0.70523 1.24342,-1.13208 0.77947,-0.4454 1.91154,-0.4454 1.15064,0 1.91155,0.4454 0.77946,0.42685 1.24342,1.11352 0.48253,0.68667 0.79803,1.48469 0.33405,0.77947 0.83513,2.09713 l 7.10796,17.55648 q 0.83514,2.00433 0.83514,2.9137 0,0.94649 -0.79802,1.74451 -0.77946,0.77947 -1.89298,0.77947 -0.64955,0 -1.11352,-0.24126 -0.46396,-0.22271 -0.77946,-0.61244 -0.3155,-0.40829 -0.68667,-1.22487 -0.35262,-0.83514 -0.61244,-1.46613 z m -10.91248,-7.55337 h 8.12869 l -4.10146,-11.22798 z m 29.0404,-1.00217 h -1.9301 v 8.74112 q 0,1.72596 -0.76091,2.54254 -0.7609,0.81658 -1.98577,0.81658 -1.31767,0 -2.04145,-0.8537 -0.72379,-0.8537 -0.72379,-2.50542 v -20.93414 q 0,-1.78163 0.79802,-2.57966 0.79802,-0.79802 2.57965,-0.79802 h 8.96383 q 1.85586,0 3.17352,0.16703 1.31767,0.14847 2.37551,0.63099 1.28055,0.53821 2.26416,1.54037 0.9836,1.00217 1.48469,2.33839 0.51964,1.31766 0.51964,2.80236 0,3.04361 -1.72596,4.86236 -1.70739,1.81875 -5.19642,2.57965 1.46614,0.77946 2.80236,2.30127 1.33622,1.52181 2.37551,3.24776 1.05784,1.7074 1.63316,3.0993 0.59387,1.37334 0.59387,1.89298 0,0.5382 -0.35261,1.0764 -0.33406,0.51964 -0.92793,0.81658 -0.59388,0.3155 -1.37334,0.3155 -0.92793,0 -1.55893,-0.44541 -0.63099,-0.42685 -1.09496,-1.09496 -0.44541,-0.66811 -1.22487,-1.96722 l -2.20848,-3.67461 q -1.18775,-2.02289 -2.13424,-3.08073 -0.92793,-1.05784 -1.89298,-1.44758 -0.96505,-0.38973 -2.43118,-0.38973 z m 3.15496,-11.43212 h -5.08506 v 7.47913 h 4.9366 q 1.98577,0 3.34055,-0.33405 1.35478,-0.35262 2.06001,-1.1692 0.72379,-0.83514 0.72379,-2.28271 0,-1.13208 -0.57532,-1.98577 -0.57532,-0.87226 -1.59604,-1.29911 -0.96505,-0.40829 -3.80453,-0.40829 z m 40.24984,14.47574 q 0,1.29911 -0.64955,2.82091 -0.631,1.50325 -2.00434,2.96939 -1.37334,1.44757 -3.50758,2.35694 -2.13424,0.90938 -4.97372,0.90938 -2.1528,0 -3.91587,-0.40829 -1.76307,-0.40829 -3.21064,-1.26199 -1.42902,-0.87226 -2.63533,-2.28271 -1.0764,-1.28055 -1.83731,-2.85803 -0.7609,-1.59605 -1.15063,-3.39624 -0.37117,-1.80018 -0.37117,-3.82308 0,-3.28487 0.94649,-5.88308 0.96505,-2.59821 2.74667,-4.43552 1.78163,-1.85586 4.1757,-2.82091 2.39406,-0.96505 5.10363,-0.96505 3.30343,0 5.88309,1.31766 2.57965,1.31766 3.95299,3.26632 1.37334,1.9301 1.37334,3.65605 0,0.94649 -0.66812,1.67028 -0.66811,0.72379 -1.6146,0.72379 -1.05784,0 -1.59604,-0.50108 -0.51964,-0.50109 -1.1692,-1.72596 -1.0764,-2.02289 -2.54253,-3.02506 -1.44757,-1.00216 -3.58182,-1.00216 -3.39623,0 -5.41912,2.57965 -2.00433,2.57965 -2.00433,7.33066 0,3.17353 0.89081,5.28921 0.89082,2.09713 2.52398,3.13641 1.63316,1.03929 3.82308,1.03929 2.3755,0 4.00866,-1.1692 1.65172,-1.18775 2.48686,-3.47046 0.35262,-1.0764 0.87226,-1.74451 0.51964,-0.68667 1.67028,-0.68667 0.9836,0 1.68883,0.68667 0.70523,0.68667 0.70523,1.70739 z m 11.29832,-15.73773 v 7.79463 h 11.89609 v -7.79463 q 0,-1.67028 0.74235,-2.50541 0.7609,-0.83514 1.98577,-0.83514 1.24343,0 2.00433,0.83514 0.77947,0.81658 0.77947,2.50541 v 21.43523 q 0,1.68884 -0.77947,2.52398 -0.77946,0.83514 -2.00433,0.83514 -1.24343,0 -1.98577,-0.83514 -0.74235,-0.8537 -0.74235,-2.52398 v -9.14941 h -11.89609 v 9.14941 q 0,1.68884 -0.77946,2.52398 -0.77946,0.83514 -2.00433,0.83514 -1.24343,0 -1.98578,-0.83514 -0.74234,-0.8537 -0.74234,-2.52398 v -21.43523 q 0,-1.67028 0.72378,-2.50541 0.74235,-0.83514 2.00434,-0.83514 1.24342,0 2.00433,0.83514 0.77946,0.81658 0.77946,2.50541 z m 39.81909,0 v 19.80207 h 11.1723 q 1.33623,0 2.04146,0.64956 0.72378,0.64955 0.72378,1.63316 0,1.00216 -0.70523,1.63316 -0.70522,0.61243 -2.06001,0.61243 H 356.9152 q -1.80019,0 -2.59821,-0.79802 -0.77946,-0.79802 -0.77946,-2.57965 v -20.95271 q 0,-1.67028 0.74234,-2.50541 0.76091,-0.83514 1.98578,-0.83514 1.24343,0 2.00433,0.83514 0.77946,0.81658 0.77946,2.50541 z m 35.25757,21.24965 -1.29911,-3.41479 h -11.06095 l -1.2991,3.48902 q -0.76091,2.04145 -1.29911,2.76524 -0.5382,0.70523 -1.76307,0.70523 -1.03928,0 -1.83731,-0.76091 -0.79802,-0.7609 -0.79802,-1.72595 0,-0.55676 0.18559,-1.15064 0.18559,-0.59387 0.61243,-1.65172 l 6.95949,-17.66782 q 0.29694,-0.76091 0.70523,-1.81875 0.42685,-1.0764 0.89082,-1.78163 0.48252,-0.70523 1.24343,-1.13208 0.77946,-0.4454 1.91154,-0.4454 1.15063,0 1.91154,0.4454 0.77946,0.42685 1.24343,1.11352 0.48252,0.68667 0.79802,1.48469 0.33405,0.77947 0.83514,2.09713 l 7.10796,17.55648 q 0.83514,2.00433 0.83514,2.9137 0,0.94649 -0.79803,1.74451 -0.77946,0.77947 -1.89298,0.77947 -0.64955,0 -1.11352,-0.24126 -0.46396,-0.22271 -0.77946,-0.61244 -0.3155,-0.40829 -0.68667,-1.22487 -0.35261,-0.83514 -0.61243,-1.46613 z m -10.91249,-7.55337 h 8.12869 l -4.10146,-11.22798 z m 33.25322,10.6341 h -8.31427 q -1.80019,0 -2.57966,-0.79802 -0.7609,-0.81658 -0.7609,-2.57965 v -20.45162 q 0,-1.80019 0.77946,-2.57966 0.79802,-0.79802 2.5611,-0.79802 h 8.81535 q 1.94866,0 3.37767,0.24127 1.42902,0.24126 2.5611,0.92793 0.96504,0.57532 1.70739,1.46613 0.74235,0.87226 1.13208,1.94866 0.38973,1.05784 0.38973,2.24559 0,4.0829 -4.0829,5.97589 5.36345,1.70739 5.36345,6.64399 0,2.28271 -1.1692,4.12002 -1.16919,1.81874 -3.15497,2.691 -1.24343,0.51964 -2.85803,0.74235 -1.6146,0.20414 -3.7674,0.20414 z m -0.40829,-12.08167 h -5.73462 v 7.94309 h 5.9202 q 5.58615,0 5.58615,-4.02722 0,-2.06001 -1.44757,-2.98794 -1.44757,-0.92793 -4.32416,-0.92793 z m -5.73462,-10.98672 v 7.03373 h 5.04795 q 2.06001,0 3.17352,-0.38974 1.13208,-0.38973 1.72596,-1.48469 0.46396,-0.77946 0.46396,-1.74451 0,-2.06001 -1.46613,-2.72812 -1.46613,-0.68667 -4.47263,-0.68667 z m 34.62653,-4.60254 q 4.23137,0 7.25643,1.72595 3.04362,1.7074 4.60255,4.88092 1.55892,3.15497 1.55892,7.42346 0,3.15497 -0.8537,5.73462 -0.85369,2.57965 -2.56109,4.47263 -1.70739,1.89298 -4.19425,2.89515 -2.48686,1.00217 -5.69751,1.00217 -3.19208,0 -5.71606,-1.02073 -2.52397,-1.03928 -4.21281,-2.9137 -1.68884,-1.87443 -2.56109,-4.50975 -0.8537,-2.63533 -0.8537,-5.69751 0,-3.13641 0.89082,-5.75318 0.90937,-2.61676 2.61676,-4.45407 1.7074,-1.83731 4.15714,-2.80236 2.44974,-0.9836 5.56759,-0.9836 z m 7.83175,13.99321 q 0,-2.98794 -0.96505,-5.17786 -0.96505,-2.18992 -2.76524,-3.30344 -1.78163,-1.13207 -4.10146,-1.13207 -1.65172,0 -3.06217,0.63099 -1.3919,0.61244 -2.41263,1.80019 -1.00216,1.18775 -1.59604,3.04362 -0.57532,1.8373 -0.57532,4.13857 0,2.31983 0.57532,4.19426 0.59388,1.87442 1.65172,3.11785 1.0764,1.22487 2.44974,1.8373 1.3919,0.61244 3.04362,0.61244 2.11568,0 3.87875,-1.05784 1.78163,-1.05785 2.82092,-3.26633 1.05784,-2.20847 1.05784,-5.43768 z m 18.4991,2.04145 h -1.9301 v 8.74112 q 0,1.72596 -0.76091,2.54254 -0.7609,0.81658 -1.98577,0.81658 -1.31766,0 -2.04145,-0.8537 -0.72379,-0.8537 -0.72379,-2.50542 v -20.93414 q 0,-1.78163 0.79802,-2.57966 0.79803,-0.79802 2.57966,-0.79802 h 8.96382 q 1.85586,0 3.17353,0.16703 1.31766,0.14847 2.3755,0.63099 1.28055,0.53821 2.26416,1.54037 0.98361,1.00217 1.48469,2.33839 0.51964,1.31766 0.51964,2.80236 0,3.04361 -1.72595,4.86236 -1.7074,1.81875 -5.19642,2.57965 1.46613,0.77946 2.80235,2.30127 1.33622,1.52181 2.37551,3.24776 1.05784,1.7074 1.63316,3.0993 0.59388,1.37334 0.59388,1.89298 0,0.5382 -0.35262,1.0764 -0.33405,0.51964 -0.92793,0.81658 -0.59388,0.3155 -1.37334,0.3155 -0.92793,0 -1.55893,-0.44541 -0.63099,-0.42685 -1.09496,-1.09496 -0.4454,-0.66811 -1.22487,-1.96722 l -2.20847,-3.67461 q -1.18776,-2.02289 -2.13425,-3.08073 -0.92793,-1.05784 -1.89298,-1.44758 -0.96505,-0.38973 -2.43118,-0.38973 z m 3.15497,-11.43212 h -5.08507 v 7.47913 h 4.9366 q 1.98577,0 3.34055,-0.33405 1.35478,-0.35262 2.06001,-1.1692 0.72379,-0.83514 0.72379,-2.28271 0,-1.13208 -0.57532,-1.98577 -0.57532,-0.87226 -1.59604,-1.29911 -0.96505,-0.40829 -3.80452,-0.40829 z m 34.97915,19.98766 -1.29911,-3.41479 h -11.06095 l -1.2991,3.48902 q -0.76091,2.04145 -1.29911,2.76524 -0.5382,0.70523 -1.76307,0.70523 -1.03928,0 -1.8373,-0.76091 -0.79803,-0.7609 -0.79803,-1.72595 0,-0.55676 0.18559,-1.15064 0.18559,-0.59387 0.61244,-1.65172 l 6.95949,-17.66782 q 0.29693,-0.76091 0.70522,-1.81875 0.42685,-1.0764 0.89082,-1.78163 0.48252,-0.70523 1.24343,-1.13208 0.77946,-0.4454 1.91154,-0.4454 1.15063,0 1.91154,0.4454 0.77946,0.42685 1.24343,1.11352 0.48252,0.68667 0.79802,1.48469 0.33406,0.77947 0.83514,2.09713 l 7.10796,17.55648 q 0.83514,2.00433 0.83514,2.9137 0,0.94649 -0.79802,1.74451 -0.77947,0.77947 -1.89299,0.77947 -0.64955,0 -1.11351,-0.24126 -0.46397,-0.22271 -0.77947,-0.61244 -0.31549,-0.40829 -0.68667,-1.22487 -0.35261,-0.83514 -0.61243,-1.46613 z m -10.91248,-7.55337 h 8.12868 l -4.10146,-11.22798 z m 35.96276,-12.026 h -6.013 v 19.76495 q 0,1.7074 -0.7609,2.54254 -0.7609,0.81658 -1.96722,0.81658 -1.22487,0 -2.00433,-0.83514 -0.7609,-0.83514 -0.7609,-2.52398 v -19.76495 h -6.013 q -1.41046,0 -2.09713,-0.61244 -0.68667,-0.63099 -0.68667,-1.65171 0,-1.05785 0.70523,-1.67028 0.72379,-0.61244 2.07857,-0.61244 h 17.51935 q 1.42902,0 2.11569,0.631 0.70523,0.63099 0.70523,1.65172 0,1.02072 -0.70523,1.65171 -0.70523,0.61244 -2.11569,0.61244 z m 18.35063,-5.01083 q 4.23137,0 7.25643,1.72595 3.04361,1.7074 4.60254,4.88092 1.55893,3.15497 1.55893,7.42346 0,3.15497 -0.8537,5.73462 -0.8537,2.57965 -2.56109,4.47263 -1.7074,1.89298 -4.19426,2.89515 -2.48686,1.00217 -5.6975,1.00217 -3.19209,0 -5.71606,-1.02073 -2.52398,-1.03928 -4.21281,-2.9137 -1.68884,-1.87443 -2.5611,-4.50975 -0.85369,-2.63533 -0.85369,-5.69751 0,-3.13641 0.89081,-5.75318 0.90937,-2.61676 2.61677,-4.45407 1.70739,-1.83731 4.15714,-2.80236 2.44974,-0.9836 5.56759,-0.9836 z m 7.83174,13.99321 q 0,-2.98794 -0.96504,-5.17786 -0.96505,-2.18992 -2.76524,-3.30344 -1.78163,-1.13207 -4.10146,-1.13207 -1.65172,0 -3.06218,0.63099 -1.3919,0.61244 -2.41262,1.80019 -1.00217,1.18775 -1.59604,3.04362 -0.57532,1.8373 -0.57532,4.13857 0,2.31983 0.57532,4.19426 0.59387,1.87442 1.65171,3.11785 1.07641,1.22487 2.44975,1.8373 1.39189,0.61244 3.04361,0.61244 2.11569,0 3.87876,-1.05784 1.78163,-1.05785 2.82091,-3.26633 1.05784,-2.20847 1.05784,-5.43768 z m 18.4991,2.04145 h -1.9301 v 8.74112 q 0,1.72596 -0.7609,2.54254 -0.7609,0.81658 -1.98577,0.81658 -1.31767,0 -2.04146,-0.8537 -0.72378,-0.8537 -0.72378,-2.50542 v -20.93414 q 0,-1.78163 0.79802,-2.57966 0.79802,-0.79802 2.57965,-0.79802 h 8.96382 q 1.85587,0 3.17353,0.16703 1.31767,0.14847 2.37551,0.63099 1.28054,0.53821 2.26415,1.54037 0.98361,1.00217 1.48469,2.33839 0.51965,1.31766 0.51965,2.80236 0,3.04361 -1.72596,4.86236 -1.70739,1.81875 -5.19642,2.57965 1.46614,0.77946 2.80236,2.30127 1.33622,1.52181 2.3755,3.24776 1.05785,1.7074 1.63316,3.0993 0.59388,1.37334 0.59388,1.89298 0,0.5382 -0.35261,1.0764 -0.33406,0.51964 -0.92794,0.81658 -0.59387,0.3155 -1.37334,0.3155 -0.92793,0 -1.55892,-0.44541 -0.63099,-0.42685 -1.09496,-1.09496 -0.44541,-0.66811 -1.22487,-1.96722 l -2.20848,-3.67461 q -1.18775,-2.02289 -2.13424,-3.08073 -0.92794,-1.05784 -1.89298,-1.44758 -0.96505,-0.38973 -2.43119,-0.38973 z m 3.15497,-11.43212 h -5.08507 v 7.47913 h 4.9366 q 1.98578,0 3.34056,-0.33405 1.35478,-0.35262 2.06001,-1.1692 0.72378,-0.83514 0.72378,-2.28271 0,-1.13208 -0.57531,-1.98577 -0.57532,-0.87226 -1.59605,-1.29911 -0.96505,-0.40829 -3.80452,-0.40829 z m 17.79385,20.17324 v -21.43523 q 0,-1.67028 0.7609,-2.50541 0.76091,-0.83514 1.96722,-0.83514 1.24343,0 2.00433,0.83514 0.77947,0.81658 0.77947,2.50541 v 21.43523 q 0,1.68884 -0.77947,2.52398 -0.7609,0.83514 -2.00433,0.83514 -1.18775,0 -1.96722,-0.83514 -0.7609,-0.8537 -0.7609,-2.52398 z m 30.39519,-20.06189 h -12.41573 v 6.68111 h 11.43212 q 1.26199,0 1.87443,0.57532 0.63099,0.55676 0.63099,1.48469 0,0.92793 -0.61244,1.52181 -0.61243,0.57532 -1.89298,0.57532 h -11.43212 v 7.73895 h 12.84258 q 1.29911,0 1.94866,0.61244 0.66811,0.59387 0.66811,1.59604 0,0.96505 -0.66811,1.57749 -0.64955,0.59387 -1.94866,0.59387 h -14.97682 q -1.80019,0 -2.59821,-0.79802 -0.77947,-0.79802 -0.77947,-2.57965 v -20.45162 q 0,-1.18776 0.35262,-1.9301 0.35261,-0.76091 1.09496,-1.09496 0.7609,-0.35262 1.9301,-0.35262 h 14.54997 q 1.31767,0 1.94866,0.59388 0.64955,0.57532 0.64955,1.52181 0,0.96505 -0.64955,1.55892 -0.63099,0.57532 -1.94866,0.57532 z m 28.89191,14.79124 q 0,2.4683 -1.28054,4.43551 -1.26199,1.96722 -3.71173,3.08074 -2.44974,1.11352 -5.80886,1.11352 -4.02722,0 -6.64399,-1.52181 -1.85586,-1.09496 -3.02506,-2.91371 -1.15063,-1.8373 -1.15063,-3.56326 0,-1.00216 0.68667,-1.70739 0.70522,-0.72379 1.78163,-0.72379 0.87225,0 1.46613,0.55676 0.61243,0.55676 1.03928,1.65172 0.51964,1.2991 1.11352,2.17136 0.61244,0.87226 1.7074,1.44757 1.09496,0.55676 2.87658,0.55676 2.44975,0 3.97155,-1.13207 1.54037,-1.15064 1.54037,-2.85803 0,-1.35478 -0.83514,-2.18992 -0.81658,-0.8537 -2.13424,-1.29911 -1.29911,-0.44541 -3.48903,-0.94649 -2.93226,-0.68667 -4.91804,-1.59604 -1.96721,-0.92793 -3.13641,-2.50542 -1.15063,-1.59604 -1.15063,-3.95299 0,-2.2456 1.22487,-3.99011 1.22487,-1.74451 3.5447,-2.67244 2.31983,-0.94649 5.45624,-0.94649 2.50542,0 4.32416,0.63099 1.83731,0.61244 3.04362,1.65172 1.20631,1.02073 1.76307,2.1528 0.55676,1.13208 0.55676,2.20848 0,0.98361 -0.70523,1.78163 -0.68667,0.77946 -1.72595,0.77946 -0.94649,0 -1.44758,-0.46396 -0.48252,-0.48253 -1.05784,-1.55893 -0.74234,-1.54037 -1.78163,-2.39406 -1.03928,-0.87226 -3.34055,-0.87226 -2.13425,0 -3.45191,0.94649 -1.29911,0.92793 -1.29911,2.2456 0,0.81658 0.44541,1.41045 0.44541,0.59388 1.22487,1.02073 0.77947,0.42685 1.57749,0.66811 0.79802,0.24126 2.63532,0.70523 2.30128,0.5382 4.15714,1.18775 1.87442,0.64955 3.17353,1.57749 1.31766,0.92793 2.04145,2.35694 0.74234,1.41046 0.74234,3.47047 z"
         id="text1-2"
         transform="matrix(0.1530455,0,0,0.1530455,108.29888,-42.4085)"
         aria-label="RESEARCH LABORATORIES" />
    </g>
  </g>
</svg>
