<?xml version="1.0" encoding="UTF-8" standalone="no"?>
<!-- Created with Inkscape (http://www.inkscape.org/) -->

<svg
   width="210mm"
   height="148mm"
   viewBox="0 0 210 148"
   version="1.1"
   id="svg1"
   sodipodi:docname="acute-logo-Black-White-Outline-path.svg"
   inkscape:version="1.4.3 (0d15f75, 2025-12-25)"
   xmlns:inkscape="http://www.inkscape.org/namespaces/inkscape"
   xmlns:sodipodi="http://sodipodi.sourceforge.net/DTD/sodipodi-0.dtd"
   xmlns:xlink="http://www.w3.org/1999/xlink"
   xmlns="http://www.w3.org/2000/svg"
   xmlns:svg="http://www.w3.org/2000/svg">
  <sodipodi:namedview
     id="namedview1"
     pagecolor="#ffffff"
     bordercolor="#000000"
     borderopacity="0.25"
     inkscape:showpageshadow="2"
     inkscape:pageopacity="0.0"
     inkscape:pagecheckerboard="true"
     inkscape:deskcolor="#d1d1d1"
     inkscape:document-units="mm"
     inkscape:zoom="1.4702524"
     inkscape:cx="187.04271"
     inkscape:cy="239.0746"
     inkscape:window-width="2560"
     inkscape:window-height="1369"
     inkscape:window-x="-8"
     inkscape:window-y="-8"
     inkscape:window-maximized="1"
     inkscape:current-layer="g9" />
  <defs
     id="defs1">
    <linearGradient
       id="swatch9"
       inkscape:swatch="solid">
      <stop
         style="stop-color:#000000;stop-opacity:0;"
         offset="0"
         id="stop9" />
    </linearGradient>
    <rect
       x="112.54053"
       y="527.11292"
       width="566.16083"
       height="159.1993"
       id="rect1" />
    <rect
       x="112.54053"
       y="527.11292"
       width="555.64569"
       height="58.105354"
       id="rect1-1" />
    <rect
       x="112.54053"
       y="527.11292"
       width="903.2099"
       height="163.52043"
       id="rect2" />
    <rect
       x="112.54053"
       y="527.11292"
       width="903.2099"
       height="163.52043"
       id="rect4" />
    <rect
       x="112.54053"
       y="527.11292"
       width="571.56226"
       height="170.00214"
       id="rect5" />
    <rect
       x="112.54053"
       y="527.11292"
       width="566.16083"
       height="159.1993"
       id="rect8" />
    <rect
       x="112.54053"
       y="527.11292"
       width="555.64569"
       height="58.105354"
       id="rect9" />
    <linearGradient
       inkscape:collect="always"
       xlink:href="#swatch9"
       id="linearGradient9"
       x1="172.94682"
       y1="585.4782"
       x2="617.21589"
       y2="585.4782"
       gradientUnits="userSpaceOnUse" />
    <linearGradient
       inkscape:collect="always"
       xlink:href="#swatch9"
       id="linearGradient10"
       x1="121.5639"
       y1="548.18574"
       x2="660.38751"
       y2="548.18574"
       gradientUnits="userSpaceOnUse" />
    <rect
       x="112.54053"
       y="527.11292"
       width="566.16083"
       height="159.1993"
       id="rect16" />
  </defs>
  <g
     inkscape:label="Layer 1"
     inkscape:groupmode="layer"
     id="layer1">
    <g
       id="g9"
       transform="translate(-43.51928,-12.979434)">
      <path
         id="path13"
         d="m 100.54485,67.466256 c 2.55373,-2.697726 6.31232,-12.633467 8.10198,-16.536059 0.42905,-0.931567 1.31947,-1.48992 2.34508,-1.469349 1.02561,0.02057 1.89253,0.611249 2.28337,1.560449 l 8.50165,20.60028 c 2.52435,6.11837 4.76951,7.905099 7.65532,-0.185138 3.10326,-8.692672 4.17001,-12.089808 6.06547,-17.408853 6.5004,-18.240504 10.11206,-17.608684 16.73001,-1.974806 4.1083,9.706523 8.53399,19.383659 15.80727,7.426092 l 2.89167,-4.751876 c 2.09236,-3.441216 3.70864,-2.580177 4.60789,-0.04701 8.42231,23.688852 51.12872,18.00744 47.96544,21.349648 l -17.54404,0.06465 c -13.37695,0.04996 -24.93779,3.094449 -29.7073,-9.550772 -3.26196,-8.645653 -3.43535,-4.22585 -10.53817,12.172091 -5.15155,11.889975 -8.0256,8.639775 -14.72289,-12.080992 -7.59948,-17.117921 -5.80392,-19.871482 -15.56041,4.707796 -3.71157,9.342124 -6.52685,16.406756 -8.39292,16.988618 -2.23635,0.696472 -5.45129,-1.757341 -9.75355,-12.160335 -8.02852,-19.421862 -6.29175,-19.271988 -12.93026,-6.600319 -2.51553,4.801835 -5.189746,6.05372 -10.520538,6.406365 -2.212843,0.146934 -17.023885,0.138118 -20.329921,0.164566 -1.888009,-2.318864 20.247635,-1.498736 27.044849,-8.675039"
         style="display:inline;fill:#ffffff;fill-opacity:1;fill-rule:nonzero;stroke:#000000;stroke-width:0.458611;stroke-dasharray:none;stroke-opacity:1"
         sodipodi:nodetypes="ccscccccccccccccccccccc" />
      <g
         id="text16"
         style="font-size:105.272px;text-align:center;letter-spacing:20px;white-space:pre;fill:#ffffff;stroke:#000000;stroke-width:1.36854"
         transform="matrix(0.33706565,0,0,0.333167,15.331645,-91.637507)"
         aria-label="ACUTE">
        <path
           style="font-family:'Arial Rounded MT Bold';-inkscape-font-specification:'Arial Rounded MT Bold, '"
           d="m 227.24374,614.62333 -3.59817,-9.45803 h -30.6358 l -3.59816,9.66364 q -2.1075,5.65426 -3.59816,7.65895 -1.49067,1.95329 -4.88323,1.95329 -2.87853,0 -5.08883,-2.1075 -2.2103,-2.10749 -2.2103,-4.78041 0,-1.54207 0.51402,-3.18695 0.51403,-1.64487 1.69628,-4.57481 l 19.27588,-48.93503 q 0.82244,-2.1075 1.95329,-5.03743 1.18225,-2.98134 2.46731,-4.93463 1.33646,-1.95329 3.44396,-3.13554 2.1589,-1.23366 5.29444,-1.23366 3.18695,0 5.29444,1.23366 2.1589,1.18225 3.44396,3.08414 1.33646,1.90189 2.2103,4.11219 0.92524,2.1589 2.31311,5.80846 l 19.68709,48.62662 q 2.31311,5.55146 2.31311,8.07017 0,2.62152 -2.2103,4.83182 -2.1589,2.1589 -5.24304,2.1589 -1.79908,0 -3.08414,-0.66823 -1.28506,-0.61683 -2.1589,-1.69628 -0.87384,-1.13085 -1.90189,-3.39255 -0.97664,-2.31311 -1.69627,-4.06079 z m -30.22458,-20.92075 h 22.51422 l -11.35991,-31.09842 z"
           id="path1" />
        <path
           style="font-family:'Arial Rounded MT Bold';-inkscape-font-specification:'Arial Rounded MT Bold, ';fill-rule:evenodd"
           d="m 338.94552,599.35684 q 0,3.59816 -1.79908,7.81315 -1.74768,4.16359 -5.55146,8.22438 -3.80377,4.00938 -9.71504,6.52809 -5.91127,2.51872 -13.77583,2.51872 -5.96267,0 -10.84589,-1.13085 -4.88323,-1.13085 -8.89261,-3.49536 -3.95798,-2.41591 -7.29913,-6.32249 -2.98134,-3.54676 -5.08883,-7.91596 -2.1075,-4.4206 -3.18695,-9.40663 -1.02805,-4.98603 -1.02805,-10.58888 0,-9.09822 2.62152,-16.29455 2.67292,-7.19632 7.60755,-12.28516 4.93462,-5.14023 11.56553,-7.81315 6.6309,-2.67293 14.13564,-2.67293 9.14962,0 16.29455,3.64957 7.14492,3.64957 10.9487,9.04681 3.80377,5.34585 3.80377,10.12627 0,2.62152 -1.85049,4.62621 -1.85048,2.00469 -4.472,2.00469 -2.92993,0 -4.4206,-1.38787 -1.43927,-1.38786 -3.23835,-4.78041 -2.98134,-5.60286 -7.04212,-8.37859 -4.00938,-2.77572 -9.92065,-2.77572 -9.40663,0 -15.00949,7.14492 -5.55145,7.14493 -5.55145,20.30393 0,8.7898 2.46731,14.64967 2.46731,5.80846 6.99072,8.687 4.52341,2.87853 10.58888,2.87853 6.5795,0 11.10291,-3.23835 4.57481,-3.28975 6.88791,-9.61224 0.97665,-2.98134 2.41591,-4.83182 1.43927,-1.90189 4.62622,-1.90189 2.72432,0 4.67761,1.90189 1.95329,1.90189 1.95329,4.72902 z"
           id="path2" />
        <path
           style="font-family:'Arial Rounded MT Bold';-inkscape-font-specification:'Arial Rounded MT Bold, '"
           d="m 372.77274,592.0063 v -36.23865 q 0,-4.62621 2.0561,-6.93932 2.10749,-2.31311 5.50005,-2.31311 3.54676,0 5.60285,2.31311 2.1075,2.31311 2.1075,6.93932 v 37.06109 q 0,6.32249 1.38786,10.58888 1.43927,4.21499 5.03743,6.5795 3.59817,2.31311 10.07486,2.31311 8.94401,0 12.64498,-4.72902 3.70097,-4.78042 3.70097,-14.44406 v -37.3695 q 0,-4.67762 2.05609,-6.93932 2.0561,-2.31311 5.50005,-2.31311 3.44396,0 5.55146,2.31311 2.15889,2.2617 2.15889,6.93932 v 36.23865 q 0,8.8412 -1.74768,14.75247 -1.69627,5.91127 -6.47669,10.38328 -4.11219,3.80377 -9.56084,5.55145 -5.44865,1.74768 -12.74778,1.74768 -8.68699,0 -14.95808,-1.85048 -6.27109,-1.90189 -10.22907,-5.80847 -3.95798,-3.95798 -5.80846,-10.07486 -1.85049,-6.16828 -1.85049,-14.70107 z m 148.81429,-31.61244 h -16.65436 v 54.7435 q 0,4.72901 -2.1075,7.04212 -2.1075,2.2617 -5.44865,2.2617 -3.39255,0 -5.55145,-2.31311 -2.1075,-2.3131 -2.1075,-6.99071 v -54.7435 h -16.65436 q -3.90658,0 -5.80846,-1.69628 -1.90189,-1.74768 -1.90189,-4.57481 0,-2.92993 1.95329,-4.62621 2.00469,-1.69628 5.75706,-1.69628 h 48.52382 q 3.95798,0 5.85986,1.74768 1.95329,1.74768 1.95329,4.57481 0,2.82713 -1.95329,4.57481 -1.95329,1.69628 -5.85986,1.69628 z m 86.51461,-0.82244 h -34.38817 v 18.50484 h 31.66385 q 3.49536,0 5.19163,1.59348 1.74768,1.54207 1.74768,4.11218 0,2.57012 -1.69627,4.215 -1.69628,1.59347 -5.24304,1.59347 h -31.66385 v 21.43478 h 35.57043 q 3.59816,0 5.39724,1.69628 1.85049,1.64487 1.85049,4.4206 0,2.67292 -1.85049,4.3692 -1.79908,1.64487 -5.39724,1.64487 h -41.4817 q -4.98602,0 -7.19632,-2.2103 -2.1589,-2.2103 -2.1589,-7.14493 v -56.64538 q 0,-3.28975 0.97664,-5.34584 0.97665,-2.1075 3.03274,-3.03274 2.1075,-0.97665 5.34584,-0.97665 h 40.29944 q 3.64957,0 5.39725,1.64488 1.79908,1.59347 1.79908,4.21499 0,2.67292 -1.79908,4.3178 -1.74768,1.59347 -5.39725,1.59347 z"
           id="path3" />
      </g>
    </g>
  </g>
</svg>
